# ProBuilder 5.2.3
# https://unity3d.com/unity/features/worldbuilding/probuilder
# 2025-05-25 오후 5:41:19

mtllib ./JINHEUK.mtl
o JINHEUK

g JINHEUK
v 2.534246 0 4.353498
v 2.764027 0.1010098 4.441029
v 2.756645 0 3.880913
v 2.727947 0 3.320795
v 2.879416 0 2.767329
v 3.013113 0 2.213863
v 2.815796 0 1.660397
v 2.76716 0 1.106932
v 2.872755 0 0.4872675
v 2.732397 0 -0.1323967
v 2.049297 0 -0.1323967
v 1.366199 0 -0.2960052
v 0.6830997 0 -0.2960052
v 0 0 4.768372E-07
v -0.1678619 0 0.5534668
v -0.06509781 0 1.106932
v 0.03773308 0 1.660398
v 0.09541893 0 2.213863
v -0.271966 0 2.767329
v -0.4553146 0 3.320795
v -0.4081841 0 3.87426
v -0.1285038 0 4.427727
v 0.05967426 0 4.608943
v 0.6830997 0 4.653931
v 1.024649 0 4.438286
v 1.366199 0 4.427727
v 1.707748 0 4.256193
v 2.049297 0 4.373835
v 0 1.715311 4.427727
v 0 2.572966 4.427727
v 0.3029833 2.692574 4.427727
v 0.6059666 2.812182 4.427727
v 0.6830997 2.812182 4.427727
v 1.02465 2.812182 4.069663
v 1.366199 2.812182 3.711599
v 1.707748 2.812182 3.711599
v 2.049297 2.812182 3.711599
v 2.390847 2.812182 4.069663
v 2.732397 2.812182 3.918308
v 2.732397 2.692574 4.173018
v 2.732397 2.572966 4.279175
v 2.732397 2.144138 4.347492
v 2.732397 1.962082 4.267258
v 2.732397 1.624282 4.307375
v 2.732397 1.286483 4.446203
v 2.732397 1.072069 4.489006
v 2.732397 0.8576553 4.427727
v 2.804097 0.6432415 4.431052
v 2.875796 0.4288276 4.434378
v 2.85952 0.2144136 4.437702
v 0 0.8576553 4.427727
v 2.825735 0.8576555 0
v 2.732397 2.812182 3.619552
v 2.693031 2.812182 3.320795
v 2.546526 2.812182 3.044063
v 2.360655 2.812182 2.76733
v 2.28318 2.812182 2.490597
v 2.360655 2.812182 2.213863
v 2.546526 2.812182 1.93713
v 2.653133 2.812182 1.660397
v 2.549472 2.812182 1.383664
v 2.366547 2.812182 1.106932
v 2.272511 2.812182 0.8302002
v 2.333065 2.812182 0.5534668
v 2.488937 2.812182 0.2767334
v 2.700506 2.812182 0
v 2.700506 2.572966 0
v 2.825735 1.715311 0
v 0.5087738 2.812182 0
v 0.5087738 2.572966 0
v 0.2543869 2.144138 2.384186E-07
v 0 1.715311 4.768372E-07
v 0 0.8576553 4.768372E-07
v 2.374901 2.812182 0.1319408
v 2.049297 2.812182 0.2194157
v 1.707748 2.812182 0
v 1.366199 2.812182 0.1529789
v 1.024651 2.812182 0.2402077
v 0.6830997 2.812182 0.1100178
v 0.303257 2.812182 0.5534668
v 0.3251266 2.812182 3.320795
v 0.237751 2.812182 3.171848
v -0.124403 2.812182 2.491085
v -0.09635544 2.812182 1.733959
v 0.1878319 2.812182 1.033371

vt 2.534233 4.353468
vt 2.764345 4.441228
vt 2.75663 3.880882
vt 2.727932 3.320766
vt 2.879401 2.7673
vt 3.013097 2.213835
vt 2.81578 1.660371
vt 2.767145 1.106908
vt 2.872739 0.4872444
vt 2.732382 -0.1324171
vt 2.049286 -0.1324119
vt 1.366192 -0.2960148
vt 0.683096 -0.2960097
vt 0 4.768359E-07
vt -0.167861 0.5534666
vt -0.06509745 1.106929
vt 0.03773287 1.660394
vt 0.09541841 2.213857
vt -0.2719645 2.767324
vt -0.4553121 3.32079
vt -0.4081818 3.874253
vt -0.1285031 4.427716
vt 0.05967394 4.608931
vt 0.683096 4.653913
vt 1.024643 4.438266
vt 1.366191 4.427705
vt 1.707739 4.256169
vt 2.049286 4.373807
vt -0.2128609 1.148611
vt -0.2128609 1.999529
vt 0.08977206 2.116376
vt 0.392405 2.233223
vt 0.469449 2.232759
vt 0.8278177 2.275444
vt 1.186186 2.318128
vt 1.527341 2.316074
vt 1.868495 2.31402
vt 2.192436 2.267228
vt 2.540867 2.284085
vt 2.528622 2.133591
vt 2.523519 2.001658
vt 2.520234 1.567663
vt 2.524091 1.397062
vt 2.522163 1.056903
vt 2.515489 0.704411
vt 2.513431 0.4863335
vt 2.516377 0.2812603
vt 2.587834 0.067684
vt 2.659291 -0.1458924
vt 2.642873 -0.3589397
vt 2.54733 -0.4712941
vt 2.322024 -0.5591922
vt 1.836658 -0.5588168
vt 1.501159 -0.542064
vt 1.151758 -0.5614424
vt 0.8100954 -0.5607078
vt 0.4585744 -0.5855978
vt -0.1619675 -0.5762277
vt -0.3412161 -0.5524538
vt -0.2128609 0.2976921
vt -0.04996887 0.569287
vt 0.08405767 -0.2748774
vt -0.5379916 -0.2878836
vt -1.155692 -0.2761684
vt -1.70993 -0.280073
vt -2.2668 -0.2989221
vt -2.817815 -0.2844999
vt -3.368515 -0.2682914
vt -3.929053 -0.2701802
vt -4.489212 -0.1694282
vt -4.487575 -0.0662032
vt -4.484539 0.1454827
vt -4.479946 0.3660112
vt -4.475353 0.5865396
vt -4.536623 0.7999762
vt -4.493826 1.013228
vt -4.35502 1.349069
vt -4.314909 1.685086
vt -4.395131 1.866363
vt -4.326824 2.292896
vt -4.220684 2.41171
vt -3.966014 2.53026
vt -3.667304 2.529729
vt -3.367898 2.533154
vt -3.088618 2.547388
vt -2.808642 2.565579
vt -2.530582 2.572874
vt -2.255262 2.564595
vt -1.981859 2.54542
vt -1.707054 2.534213
vt -1.428531 2.54414
vt -1.148607 2.562035
vt -0.8702563 2.570995
vt -0.594637 2.564416
vt -0.3207032 2.548257
vt -0.04775438 2.5265
vt -0.04775438 2.288495
vt -0.04996887 1.422597
vt -0.5087709 2.801533
vt -0.5087709 2.563235
vt -0.2543855 2.135979
vt 1.598572E-09 1.708724
vt 1.598572E-09 0.854362
vt -0.6840883 -0.02571513
vt -1.367184 -0.02551463
vt -2.04973 -0.01099
vt -2.732826 -0.0107895
vt -2.825719 0.8551915
vt -2.825719 1.709553
vt -2.700491 2.563878
vt -2.700491 2.802176
vt -2.374445 2.813632
vt -2.04855 2.821195
vt -1.707739 2.801885
vt -1.365679 2.815178
vt -1.02384 2.822715
vt -0.6827271 2.811216
vt -0.303257 0.5534668
vt -0.5087738 -1.973109E-13
vt -0.6830997 0.1100178
vt -1.024651 0.2402077
vt -1.366199 0.1529789
vt -1.707748 -1.973109E-13
vt -2.049297 0.2194157
vt -2.374901 0.1319408
vt -2.700506 -1.973109E-13
vt -2.488937 0.2767334
vt -2.333065 0.5534668
vt -2.272511 0.8302002
vt -2.366547 1.106932
vt -2.549472 1.383664
vt -2.653133 1.660397
vt -2.546526 1.93713
vt -2.360655 2.213863
vt -2.28318 2.490597
vt -2.360655 2.76733
vt -2.546526 3.044063
vt -2.693031 3.320795
vt -2.732397 3.619552
vt -2.732397 3.918308
vt -2.390847 4.069663
vt -2.049297 3.711599
vt -1.707748 3.711599
vt -1.366199 3.711599
vt -1.02465 4.069663
vt -0.6830997 4.427727
vt -0.6059666 4.427727
vt -0.3251266 3.320795
vt -0.237751 3.171848
vt 0.124403 2.491085
vt 0.09635544 1.733959
vt -0.1878319 1.033371
vt 4.429591 -3.461394E-05
vt 3.884455 -0.04240315
vt 3.332587 -0.05145293
vt 2.774044 -0.02748061
vt 2.210172 0.02285967
vt 1.65861 0.01229757
vt 1.108353 -0.004732725
vt 0.5580953 -0.02175345
vt 4.766372E-07 0.8487993
vt 4.766372E-07 1.697599
vt -0.007365741 2.158446
vt -0.01473196 2.619293
vt -0.01473196 2.856039
vt 0.5444537 2.828891
vt 1.027499 2.814345
vt 1.736022 2.776535
vt 2.493643 2.775659
vt 3.163634 2.830373
vt 3.309988 2.843509
vt 4.408324 2.888341
vt 4.417097 2.726558
vt 4.42587 2.564775
vt 4.42587 1.715975
vt 4.42587 0.8671761

vn -0.08006086 -0.6763145 0.7322493
vn 0.377852 -0.6848857 0.6230245
vn 0.7107759 -0.6976055 -0.09024527
vn 0.6964212 -0.7167387 0.03582188
vn 0.7275357 -0.6852318 0.03390061
vn 0.7294676 -0.6828508 -0.03989729
vn 0.7018962 -0.6867129 -0.1891217
vn 0.7286715 -0.6829184 0.05157819
vn 0.7112859 -0.7026241 -0.01979341
vn 0.5394171 -0.5097593 -0.6702049
vn 0.08471161 -0.6952246 -0.7137833
vn 0.02573075 -0.6714746 -0.7405806
vn -0.1568028 -0.6600779 -0.7346497
vn -0.6537129 -0.4826024 -0.5828846
vn -0.7430542 -0.6676884 -0.04541445
vn -0.7497317 -0.6573247 0.07633126
vn -0.7081231 -0.7033873 0.06170769
vn -0.6293559 -0.7618004 -0.1535294
vn -0.685757 -0.6991239 -0.2023938
vn -0.7375753 -0.666581 0.1079465
vn -0.7540223 -0.6190476 0.2196143
vn -0.7492235 -0.3635659 0.5536099
vn -0.3025047 -0.6743189 0.6736356
vn 0.03326605 -0.6734511 0.738483
vn 0.2142639 -0.6630037 0.7172984
vn 0.02428277 -0.7409501 0.6711209
vn 0.02915837 -0.8060827 0.5910842
vn -0.08339716 -0.7086996 0.7005639
vn -0.5510129 0.0416954 0.8334544
vn -0.4917035 0.2846594 0.8229195
vn -0.2473089 0.6264654 0.7391748
vn -0.1628911 0.858157 0.4868603
vn 0.09574204 0.8123413 0.5752696
vn 0.1548134 0.9232491 0.3516303
vn 0.1051822 0.9376245 0.3313563
vn -0.1395966 0.8577051 0.494828
vn -0.2363391 0.8543624 0.4628268
vn -0.1541114 0.887974 0.4333034
vn 0.5222571 0.832684 0.1840784
vn 0.7483848 0.5305099 0.3980947
vn 0.6512331 0.3355007 0.680687
vn 0.5864663 0.1168824 0.801496
vn 0.753123 0.226124 0.6177974
vn 0.8127688 0.2753659 0.5134009
vn 0.7249362 0.1317041 0.6761075
vn 0.7641435 -0.1433678 0.6289121
vn 0.705705 0.0327996 0.7077462
vn 0.7885638 0.2180675 0.5749901
vn 0.7081545 0.1000634 0.698931
vn 0.5052625 -0.1288992 0.8532847
vn -0.7221569 0.1565136 0.67379
vn 0.7266089 0.05739086 -0.6846501
vn 0.7216955 0.6905978 -0.04722545
vn 0.6701045 0.7298175 -0.1353749
vn 0.5589392 0.7587855 -0.3344122
vn 0.5829118 0.7666726 -0.2691227
vn 0.6180205 0.7861615 -0.0008990823
vn 0.5556228 0.7910727 0.255905
vn 0.5473849 0.7871197 0.284275
vn 0.6406406 0.7676396 -0.0175793
vn 0.5830895 0.8041952 -0.1152247
vn 0.3848905 0.9040405 -0.1859301
vn 0.5047541 0.8630903 -0.01727761
vn 0.5665069 0.7828907 0.2572003
vn 0.5576763 0.7439206 0.368211
vn 0.3705974 0.8847486 -0.2826259
vn 0.798844 0.1963533 -0.5685892
vn 0.6502518 0.2217667 -0.7266306
vn -0.2509702 0.6215969 -0.7420453
vn -0.4462532 0.3046229 -0.8414648
vn -0.5178787 0.2709564 -0.8114088
vn -0.6280813 0.1419791 -0.7650855
vn -0.7312609 0.1247986 -0.670584
vn -0.2143913 0.7396466 -0.6379336
vn -0.01508597 0.7873607 -0.616308
vn 0.04424685 0.7730654 -0.6327813
vn -0.09084568 0.8403382 -0.5343957
vn 0.06410167 0.8977283 -0.435861
vn 0.3016564 0.7390373 -0.6023514
vn -0.5646034 0.7941328 -0.2248916
vn -0.1638727 0.984953 0.05489217
vn -0.1235217 0.9899422 0.06896944
vn -0.4034747 0.9140415 0.04166916
vn -0.687815 0.7189081 -0.100408
vn -0.5136153 0.8380422 -0.1840778

usemtl M_YFGM_SoilGravel03
f 31/31/31 30/30/30 29/29/29
f 38/38/38 40/40/40 39/39/39
f 40/40/40 38/38/38 41/41/41
f 41/41/41 38/38/38 42/42/42
f 38/38/38 37/37/37 42/42/42
f 42/42/42 37/37/37 36/36/36
f 42/42/42 36/36/36 43/43/43
f 36/36/36 35/35/35 43/43/43
f 43/43/43 35/35/35 34/34/34
f 44/44/44 43/43/43 34/34/34
f 44/44/44 34/34/34 33/33/33
f 44/44/44 33/33/33 45/45/45
f 50/50/50 1/52/1 2/51/2
f 49/49/49 1/52/1 50/50/50
f 48/48/48 1/52/1 49/49/49
f 48/48/48 28/53/28 1/52/1
f 28/53/28 48/48/48 47/47/47
f 47/47/47 27/54/27 28/53/28
f 47/47/47 46/46/46 27/54/27
f 27/54/27 46/46/46 26/55/26
f 45/45/45 26/55/26 46/46/46
f 33/33/33 26/55/26 45/45/45
f 32/32/32 31/31/31 33/33/33
f 26/55/26 33/33/33 31/31/31
f 29/29/29 26/55/26 31/31/31
f 26/55/26 29/29/29 25/56/25
f 25/56/25 29/29/29 24/57/24
f 24/57/24 29/29/29 51/60/51
f 24/57/24 51/60/51 23/58/23
f 51/60/51 22/59/22 23/58/23
f 51/176/51 21/154/21 22/153/22
f 20/155/20 21/154/21 51/176/51
f 29/175/29 20/155/20 51/176/51
f 20/155/20 29/175/29 30/174/30
f 30/174/30 19/156/19 20/155/20
f 32/172/32 81/171/81 31/173/31
f 31/173/31 81/171/81 30/174/30
f 30/174/30 81/171/81 82/170/82
f 30/174/30 82/170/82 83/169/83
f 30/174/30 83/169/83 84/168/84
f 19/156/19 30/174/30 84/168/84
f 19/156/19 84/168/84 18/157/18
f 18/157/18 84/168/84 17/158/17
f 73/161/73 14/14/14 15/160/15
f 16/159/16 73/161/73 15/160/15
f 16/159/16 72/162/72 73/161/73
f 17/158/17 72/162/72 16/159/16
f 84/168/84 72/162/72 17/158/17
f 72/162/72 84/168/84 85/167/85
f 85/167/85 71/163/71 72/162/72
f 85/167/85 80/166/80 71/163/71
f 71/163/71 80/166/80 70/164/70
f 69/165/69 70/164/70 80/166/80
f 73/103/73 72/102/72 71/101/71
f 71/101/71 12/105/12 73/103/73
f 71/101/71 52/108/52 12/105/12
f 52/108/52 71/101/71 70/100/70
f 52/108/52 70/100/70 77/115/77
f 77/115/77 76/114/76 52/108/52
f 76/114/76 75/113/75 52/108/52
f 52/108/52 75/113/75 67/110/67
f 52/108/52 67/110/67 68/109/68
f 67/110/67 75/113/75 74/112/74
f 66/111/66 67/110/67 74/112/74
f 78/116/78 77/115/77 70/100/70
f 79/117/79 78/116/78 70/100/70
f 70/100/70 69/99/69 79/117/79
f 11/106/11 12/105/12 52/108/52
f 10/107/10 11/106/11 52/108/52
f 73/103/73 12/105/12 13/104/13
f 13/104/13 14/14/14 73/103/73
f 9/63/9 10/62/10 52/61/52
f 9/63/9 52/61/52 8/64/8
f 52/61/52 68/98/68 8/64/8
f 68/98/68 61/91/61 8/64/8
f 68/98/68 62/92/62 61/91/61
f 63/93/63 62/92/62 68/98/68
f 64/94/64 63/93/63 68/98/68
f 67/97/67 64/94/64 68/98/68
f 67/97/67 65/95/65 64/94/64
f 67/97/67 66/96/66 65/95/65
f 61/91/61 7/65/7 8/64/8
f 61/91/61 60/90/60 7/65/7
f 6/66/6 7/65/7 60/90/60
f 6/66/6 60/90/60 5/67/5
f 59/89/59 5/67/5 60/90/60
f 58/88/58 5/67/5 59/89/59
f 58/88/58 57/87/57 5/67/5
f 57/87/57 56/86/56 5/67/5
f 5/67/5 56/86/56 55/85/55
f 5/67/5 55/85/55 54/84/54
f 5/67/5 54/84/54 43/78/43
f 5/67/5 43/78/43 4/68/4
f 43/78/43 44/77/44 4/68/4
f 4/68/4 44/77/44 47/74/47
f 3/69/3 4/68/4 47/74/47
f 48/73/48 3/69/3 47/74/47
f 49/72/49 3/69/3 48/73/48
f 50/71/50 3/69/3 49/72/49
f 2/70/2 3/69/3 50/71/50
f 45/76/45 47/74/47 44/77/44
f 46/75/46 47/74/47 45/76/45
f 54/84/54 53/83/53 43/78/43
f 53/83/53 39/82/39 43/78/43
f 39/82/39 42/79/42 43/78/43
f 39/82/39 40/81/40 42/79/42
f 42/79/42 40/81/40 41/80/41
f 65/127/65 66/126/66 74/125/74
f 75/124/75 65/127/65 74/125/74
f 64/128/64 65/127/65 75/124/75
f 76/123/76 64/128/64 75/124/75
f 76/123/76 63/129/63 64/128/64
f 63/129/63 76/123/76 77/122/77
f 79/120/79 69/119/69 80/118/80
f 78/121/78 79/120/79 80/118/80
f 77/122/77 78/121/78 80/118/80
f 80/118/80 85/152/85 77/122/77
f 63/129/63 77/122/77 85/152/85
f 63/129/63 85/152/85 62/130/62
f 60/132/60 61/131/61 59/133/59
f 59/133/59 61/131/61 62/130/62
f 59/133/59 62/130/62 58/134/58
f 85/152/85 58/134/58 62/130/62
f 84/151/84 58/134/58 85/152/85
f 84/151/84 57/135/57 58/134/58
f 83/150/83 57/135/57 84/151/84
f 83/150/83 82/149/82 57/135/57
f 32/147/32 33/146/33 34/145/34
f 81/148/81 32/147/32 34/145/34
f 34/145/34 35/144/35 81/148/81
f 82/149/82 81/148/81 35/144/35
f 57/135/57 82/149/82 35/144/35
f 35/144/35 56/136/56 57/135/57
f 56/136/56 35/144/35 36/143/36
f 36/143/36 37/142/37 56/136/56
f 55/137/55 56/136/56 37/142/37
f 54/138/54 55/137/55 37/142/37
f 53/139/53 54/138/54 37/142/37
f 37/142/37 38/141/38 53/139/53
f 38/141/38 39/140/39 53/139/53
f 3/3/3 2/2/2 1/1/1
f 1/1/1 27/27/27 3/3/3
f 27/27/27 1/1/1 28/28/28
f 4/4/4 3/3/3 27/27/27
f 27/27/27 26/26/26 4/4/4
f 18/18/18 4/4/4 26/26/26
f 4/4/4 18/18/18 17/17/17
f 11/11/11 4/4/4 17/17/17
f 11/11/11 5/5/5 4/4/4
f 5/5/5 11/11/11 7/7/7
f 7/7/7 6/6/6 5/5/5
f 8/8/8 7/7/7 11/11/11
f 9/9/9 8/8/8 11/11/11
f 10/10/10 9/9/9 11/11/11
f 12/12/12 11/11/11 17/17/17
f 13/13/13 12/12/12 17/17/17
f 13/13/13 17/17/17 15/15/15
f 14/14/14 13/13/13 15/15/15
f 16/16/16 15/15/15 17/17/17
f 18/18/18 26/26/26 25/25/25
f 18/18/18 25/25/25 19/19/19
f 19/19/19 25/25/25 20/20/20
f 20/20/20 25/25/25 21/21/21
f 25/25/25 23/23/23 21/21/21
f 23/23/23 25/25/25 24/24/24
f 21/21/21 23/23/23 22/22/22

